# xmcd CD database file
#
# Track frame offsets:
#	150
#	11495
#	22122
#	34402
#	44395
#	59250
#	72705
#	83307
#	97285
#	109787
#	120847
#	132057
#	143357
#	153125
#	165830
#	181492
#	195847
#	205795
#
# Disc length: 2938 seconds
#
# Revision: 0
# Processed by: cddbd v1.5.1PL0 Copyright (c) Steve Scherf et al.
# Submitted via: CDex 1.51
#
DISCID=e00b7812
DTITLE=Various Artist - Country Gold (It Only Make Believe)
DYEAR=1994
DGENRE=Country
TTITLE0=George Jones - I Can't Change Overnight
TTITLE1=Don Gibson - Oh! Lonesome Me
TTITLE2=Johnny Paycheck - Take This Job And Shove It
TTITLE3=Faron Young - Hello Walls
TTITLE4=Jeannie C. Riley - Harper Valley PTA
TTITLE5=Ray Peterson - Tell Laura I Love Her
TTITLE6=Johnny Cash - You Win Again
TTITLE7=Freddy Fender - Wasted Days, Wasted Nights
TTITLE8=Oak Ridge Boys - You'll Never Walk Alone
TTITLE9=Roger Miller - KIng Of The Road
TTITLE10=Conway Twitty - It's Only Make Believe
TTITLE11=The Kendalls - Heaven's Just A Sin Away
TTITLE12=Ned Miller - From A Jack To A King
TTITLE13=Kitty Wells - Making Believe
TTITLE14=Charley Pride - Me And Bobby McGee
TTITLE15=Glen Campbell - Rhinestone Cowboy
TTITLE16=Glen Campbell - Gentle On My Mind
TTITLE17=Billy Joe Spears - Crazy
EXTD=YEAR: 1994
EXTT0=
EXTT1=
EXTT2=
EXTT3=
EXTT4=
EXTT5=
EXTT6=
EXTT7=
EXTT8=
EXTT9=
EXTT10=
EXTT11=
EXTT12=
EXTT13=
EXTT14=
EXTT15=
EXTT16=
EXTT17=
PLAYORDER=
